# Blender v2.81 (sub 16) OBJ File: ''
# www.blender.org
o Cube
v 9.603058 -0.806683 -6.611837
v 9.603058 -1.000000 -6.611837
v 9.603058 -0.806683 6.823283
v 9.603058 -1.000000 6.823283
v -8.918064 -0.806683 -6.611837
v -8.918064 -1.000000 -6.611837
v -8.918064 -0.806683 6.823283
v -8.918064 -1.000000 6.823283
vt 0.007812 0.003906
vt 0.988281 0.003906
vt 0.992188 1.003906
vt 0.000000 1.000000
vt 0.375000 0.750000
vt 0.625000 0.750000
vt 0.625000 1.000000
vt 0.375000 1.000000
vt 0.375000 0.000000
vt 0.625000 0.000000
vt 0.625000 0.250000
vt 0.375000 0.250000
vt 0.000000 0.000000
vt 1.000000 0.000000
vt 1.000000 1.000000
vt 0.000000 1.000000
vt 0.375000 0.500000
vt 0.625000 0.500000
vn 0.0000 1.0000 0.0000
vn 0.0000 0.0000 1.0000
vn -1.0000 0.0000 0.0000
vn 0.0000 -1.0000 0.0000
vn 1.0000 0.0000 0.0000
vn 0.0000 0.0000 -1.0000
s off
f 1/1/1 5/2/1 7/3/1 3/4/1
f 4/5/2 3/6/2 7/7/2 8/8/2
f 8/9/3 7/10/3 5/11/3 6/12/3
f 6/13/4 2/14/4 4/15/4 8/16/4
f 2/17/5 1/18/5 3/6/5 4/5/5
f 6/12/6 5/11/6 1/18/6 2/17/6
